<svg width="19" height="19" viewBox="0 0 19 19" fill="none" xmlns="http://www.w3.org/2000/svg">
<path d="M4.07471 8.47109C4.07471 7.83509 4.07471 7.37984 4.10471 7.02359C4.13321 6.67184 4.18721 6.44909 4.27871 6.26984L3.61121 5.92934C3.45671 6.23159 3.38921 6.56459 3.35621 6.96284C3.32471 7.35659 3.32471 7.84784 3.32471 8.47109H4.07471ZM4.07471 9.37109V8.47109H3.32471V9.37109H4.07471ZM3.32471 9.37109V13.1211H4.07471V9.37109H3.32471ZM3.32471 13.1211V14.5566H4.07471V13.1211H3.32471ZM3.32471 14.5566C3.32471 15.1911 4.09196 15.5091 4.54121 15.0598L4.01096 14.5296C4.01697 14.5245 4.02422 14.5212 4.03196 14.5198C4.03847 14.5185 4.04524 14.519 4.05146 14.5213C4.05772 14.5248 4.06305 14.5298 4.06697 14.5358C4.07089 14.5418 4.07329 14.5487 4.07396 14.5558L3.32471 14.5566ZM4.54121 15.0598L5.99546 13.6056L5.46521 13.0753L4.01021 14.5303L4.54121 15.0598ZM11.3497 12.7461H6.26021V13.4961H11.3497V12.7461ZM13.551 12.5421C13.3717 12.6336 13.149 12.6876 12.7972 12.7168C12.4402 12.7461 11.9857 12.7461 11.3497 12.7461V13.4961C11.9737 13.4961 12.4642 13.4961 12.858 13.4638C13.2562 13.4316 13.5892 13.3641 13.8915 13.2103L13.551 12.5421ZM14.37 11.7223C14.1902 12.0749 13.9036 12.3624 13.551 12.5421L13.8915 13.2103C14.3856 12.9586 14.7873 12.5569 15.039 12.0628L14.37 11.7223ZM14.5747 9.52109C14.5747 10.1571 14.5747 10.6123 14.5447 10.9686C14.5162 11.3203 14.4622 11.5431 14.37 11.7223L15.039 12.0628C15.1927 11.7606 15.2602 11.4276 15.2925 11.0293C15.3247 10.6356 15.3247 10.1443 15.3247 9.52109H14.5747ZM14.5747 8.47109V9.52109H15.3247V8.47109H14.5747ZM14.37 6.26984C14.4615 6.44909 14.5162 6.67184 14.5455 7.02359C14.5747 7.37984 14.5747 7.83509 14.5747 8.47109H15.3247C15.3247 7.84709 15.3247 7.35659 15.2925 6.96284C15.2602 6.56459 15.1927 6.23159 15.039 5.92934L14.37 6.26984ZM13.551 5.45009C13.9037 5.63001 14.1904 5.91697 14.37 6.26984L15.039 5.92934C14.7873 5.43524 14.3856 5.03354 13.8915 4.78184L13.551 5.45009ZM11.3497 5.24609C11.9857 5.24609 12.4402 5.24609 12.7972 5.27609C13.149 5.30459 13.3717 5.35859 13.551 5.45009L13.8915 4.78184C13.5892 4.62734 13.2562 4.56059 12.858 4.52759C12.4642 4.49609 11.973 4.49609 11.3497 4.49609V5.24609ZM7.29971 5.24609H11.3497V4.49609H7.29971V5.24609ZM5.09846 5.45009C5.27771 5.35934 5.50046 5.30459 5.85221 5.27534C6.20846 5.24609 6.66371 5.24609 7.29971 5.24609V4.49609C6.67571 4.49609 6.18521 4.49609 5.79146 4.52834C5.39321 4.56059 5.06021 4.62809 4.75796 4.78184L5.09846 5.45009ZM4.27871 6.26984C4.4585 5.91686 4.74547 5.62989 5.09846 5.45009L4.75796 4.78184C4.26397 5.03335 3.86303 5.43552 3.61121 5.92934L4.27871 6.26984ZM5.99546 13.6056C6.06574 13.5355 6.16094 13.4961 6.26021 13.4961V12.7461C5.96194 12.7464 5.67598 12.8651 5.46521 13.0761L5.99546 13.6056Z" fill="#828283"/>
<path d="M6.69971 7.87109H11.9497M6.69971 10.1211H10.4497" stroke="#828283" stroke-linecap="round" stroke-linejoin="round"/>
</svg>
