<svg width="19" height="19" viewBox="0 0 19 19" fill="none" xmlns="http://www.w3.org/2000/svg">
<g clip-path="url(#clip0_15_188)">
<path d="M17.7152 9.51926C17.6905 9.46371 17.095 8.14254 15.771 6.81855C14.0069 5.05441 11.7787 4.12207 9.32617 4.12207C6.87367 4.12207 4.64546 5.05441 2.88132 6.81855C1.55734 8.14254 0.958978 9.46582 0.937181 9.51926C0.905198 9.5912 0.888672 9.66905 0.888672 9.74777C0.888672 9.8265 0.905198 9.90435 0.937181 9.97629C0.96179 10.0318 1.55734 11.3523 2.88132 12.6763C4.64546 14.4397 6.87367 15.3721 9.32617 15.3721C11.7787 15.3721 14.0069 14.4397 15.771 12.6763C17.095 11.3523 17.6905 10.0318 17.7152 9.97629C17.7471 9.90435 17.7637 9.8265 17.7637 9.74777C17.7637 9.66905 17.7471 9.5912 17.7152 9.51926ZM9.32617 14.2471C7.16195 14.2471 5.27124 13.4603 3.70609 11.9092C3.06388 11.2705 2.51752 10.5423 2.08398 9.74707C2.5174 8.95179 3.06378 8.22352 3.70609 7.58496C5.27124 6.03387 7.16195 5.24707 9.32617 5.24707C11.4904 5.24707 13.3811 6.03387 14.9462 7.58496C15.5897 8.22337 16.1373 8.95164 16.5719 9.74707C16.0649 10.6935 13.8564 14.2471 9.32617 14.2471ZM9.32617 6.37207C8.65865 6.37207 8.00613 6.57001 7.45112 6.94086C6.8961 7.31171 6.46352 7.83881 6.20807 8.45551C5.95263 9.07221 5.88579 9.75081 6.01602 10.4055C6.14624 11.0602 6.46768 11.6616 6.93968 12.1336C7.41168 12.6056 8.01305 12.927 8.66774 13.0572C9.32242 13.1874 10.001 13.1206 10.6177 12.8652C11.2344 12.6097 11.7615 12.1771 12.1324 11.6221C12.5032 11.0671 12.7012 10.4146 12.7012 9.74707C12.7002 8.85225 12.3444 7.99435 11.7116 7.36161C11.0789 6.72888 10.221 6.373 9.32617 6.37207ZM9.32617 11.9971C8.88116 11.9971 8.44614 11.8651 8.07613 11.6179C7.70612 11.3706 7.41773 11.0192 7.24744 10.6081C7.07714 10.197 7.03258 9.74457 7.1194 9.30812C7.20622 8.87166 7.42051 8.47075 7.73518 8.15608C8.04984 7.84141 8.45076 7.62712 8.88721 7.5403C9.32367 7.45349 9.77607 7.49804 10.1872 7.66834C10.5983 7.83864 10.9497 8.12703 11.197 8.49704C11.4442 8.86705 11.5762 9.30206 11.5762 9.74707C11.5762 10.3438 11.3391 10.9161 10.9172 11.3381C10.4952 11.76 9.9229 11.9971 9.32617 11.9971Z" fill="#828283"/>
</g>
<defs>
<clipPath id="clip0_15_188">
<rect width="18" height="18" fill="white" transform="translate(0.326172 0.74707)"/>
</clipPath>
</defs>
</svg>
