<svg width="49" height="49" viewBox="0 0 49 49" fill="none" xmlns="http://www.w3.org/2000/svg">
<rect x="0.326202" y="24.7471" width="8.9403" height="8.9403" rx="4.47015" transform="rotate(-45 0.326202 24.7471)" fill="#3B84F6"/>
<rect x="18.0047" y="42.4255" width="8.9403" height="8.9403" rx="4.47015" transform="rotate(-45 18.0047 42.4255)" fill="#3B84F6"/>
<rect x="18.0047" y="24.7471" width="8.9403" height="8.9403" rx="4.47015" transform="rotate(-45 18.0047 24.7471)" fill="#3B84F6"/>
<rect x="18.0047" y="7.06863" width="8.9403" height="8.9403" rx="4.47015" transform="rotate(-45 18.0047 7.06863)" fill="#3B84F6"/>
<rect x="35.6826" y="24.7471" width="8.9403" height="8.9403" rx="4.47015" transform="rotate(-45 35.6826 24.7471)" fill="#3B84F6"/>
<path d="M30.0034 12.7474C31.7491 11.0017 34.5799 11.0017 36.3256 12.7474C38.0711 14.493 38.0711 17.323 36.3256 19.0687C34.5799 20.8144 31.7491 20.8144 30.0034 19.0687C29.5458 18.611 29.2084 18.0786 28.9909 17.5109C28.8399 17.1166 28.4847 16.8157 28.0625 16.8157H20.5878C20.1656 16.8157 19.8104 17.1166 19.6594 17.5109C19.442 18.0786 19.1046 18.6109 18.6469 19.0687C18.1981 19.5175 17.6773 19.8501 17.1218 20.0676C16.7316 20.2203 16.435 20.5738 16.435 20.9928V28.501C16.435 28.92 16.7316 29.2734 17.1217 29.4264C17.6773 29.6441 18.198 29.9772 18.6469 30.4261C19.1875 30.9668 19.5606 31.6114 19.7663 32.2956C19.8964 32.7286 20.2674 33.0716 20.7195 33.0716H27.9318C28.3839 33.0716 28.7549 32.7286 28.8849 32.2956C29.0903 31.6114 29.4629 30.9667 30.0034 30.4261C31.7491 28.6804 34.5799 28.6804 36.3256 30.4261C38.071 32.1718 38.0711 35.0018 36.3256 36.7474C34.5799 38.4931 31.7491 38.4931 30.0034 36.7474C29.6229 36.3669 29.3256 35.9347 29.1112 35.4736C28.9446 35.1155 28.6052 34.8509 28.2103 34.8509H20.44C20.0451 34.8509 19.7057 35.1155 19.5392 35.4736C19.3247 35.9347 19.0274 36.3669 18.6469 36.7474C16.9013 38.493 14.0714 38.4928 12.3256 36.7474C10.58 35.0017 10.58 32.1718 12.3256 30.4261C12.7999 29.9518 13.354 29.6061 13.9448 29.3894C14.3467 29.242 14.6557 28.8835 14.6557 28.4554V21.0383C14.6557 20.6102 14.3467 20.2518 13.9448 20.1045C13.354 19.8881 12.7999 19.5429 12.3256 19.0687C10.5799 17.323 10.5799 14.4931 12.3256 12.7474C14.0714 11.0018 16.9013 11.0017 18.6469 12.7474C19.1124 13.2128 19.4536 13.7554 19.6708 14.3339C19.8201 14.7318 20.1768 15.0364 20.6018 15.0364H28.0486C28.4735 15.0364 28.8302 14.7318 28.9796 14.3339C29.1968 13.7554 29.538 13.2128 30.0034 12.7474Z" fill="#3B84F6"/>
</svg>
